<svg width="178" height="167" viewBox="0 0 178 167" fill="none" xmlns="http://www.w3.org/2000/svg">
<path fill-rule="evenodd" clip-rule="evenodd" d="M62.9686 59.8343C72.045 51.1322 84.7803 47.073 97.4936 49.3034C119.237 53.1181 133.749 73.9111 129.92 95.7363C126.091 117.562 105.368 132.173 83.6242 128.358C61.8804 124.543 47.3685 103.75 51.1976 81.9252L51.2711 81.5182C51.2963 81.3828 51.3221 81.2476 51.3486 81.1126L51.3767 80.9731L51.3607 80.9405C48.4332 74.8799 48.6248 68.7006 51.6476 64.4022L51.7614 64.2428C54.587 60.3462 58.7593 59.0032 62.7653 59.9509L62.8317 59.9672L62.9686 59.8343ZM120.399 94.0661C123.307 77.4894 112.298 61.7158 95.8235 58.8255C85.2375 56.9682 74.635 60.8648 67.6949 68.8795C66.1042 70.7165 63.3969 71.0869 61.3711 69.7447C60.4573 69.1392 60.1082 69.1776 59.5556 69.9634C59.1837 70.4923 58.9249 71.3823 58.9405 72.5105C58.9621 74.0644 59.495 75.8661 60.6494 77.8243C61.2937 78.9173 61.4824 80.2198 61.1748 81.4508C60.9989 82.1549 60.847 82.8703 60.7197 83.5959C57.8115 100.173 68.8203 115.946 85.2951 118.837C101.77 121.727 117.491 110.643 120.399 94.0661Z" fill="white"/>
<ellipse cx="35.1289" cy="35.2974" rx="35.1289" ry="35.2974" transform="matrix(-0.984957 -0.172802 -0.172802 0.984957 131.259 60.1348)" fill="#FFBD4F"/>
<ellipse cx="4.23416" cy="5.58139" rx="4.23416" ry="5.58139" transform="matrix(-0.984957 -0.172802 -0.172802 0.984957 84.2729 92.4568)" fill="#312A46"/>
<path fill-rule="evenodd" clip-rule="evenodd" d="M88.2587 72.9125C92.3312 67.1216 99.6162 71.7705 100.364 76.9343C103.884 72.3105 107.559 71.2776 111.388 73.8358C117.132 77.6731 113.657 85.9585 108.609 89.6775C105.244 92.1568 101.225 94.0137 97.236 94.7636C85.4652 85.6171 85.5437 76.7732 88.2587 72.9125Z" fill="#F27A5F"/>
<path fill-rule="evenodd" clip-rule="evenodd" d="M55.602 67.1833C59.6744 61.3923 66.9595 66.0412 67.7073 71.2051C71.2275 66.5812 74.9023 65.5484 78.7316 68.1066C84.4756 71.9438 81.0006 80.2293 75.9523 83.9483C72.5868 86.4276 68.5682 88.2844 64.5793 89.0343C52.8085 79.8879 52.887 71.0439 55.602 67.1833Z" fill="#F27A5F"/>
</svg>
