<svg width="707" height="292" viewBox="0 0 707 292" fill="none" xmlns="http://www.w3.org/2000/svg">
<path fill-rule="evenodd" clip-rule="evenodd" d="M385.733 90.2435C385.733 90.2435 171.939 122.523 180.839 96.0092C189.739 69.4951 206.13 37.7024 125.141 24.12C44.1519 10.5376 -17.228 -1.34619 -17.228 -1.34619L-20.8172 34.0987C-20.8172 34.0987 34.7842 43.7539 79.8063 69.4951C124.828 95.2363 23.2951 141.504 31.2713 194.584C39.2475 247.664 160.773 285.218 405.154 233.209L385.733 90.2435Z" fill="white"/>
<path fill-rule="evenodd" clip-rule="evenodd" d="M73.0267 109.614C70.9287 112.163 68.6352 114.837 65.4463 118.477L65.4535 118.469C65.3432 118.594 63.39 120.815 61.3558 123.133L61.1253 123.396L60.5496 124.052L60.3211 124.313C59.0311 125.784 57.8309 127.155 57.1856 127.898C46.2553 140.484 39.3808 149.534 34.1314 159.113C27.2687 171.636 24.3749 183.538 26.1504 195.353C26.1558 195.39 26.1617 195.426 26.168 195.462L26.4413 197.05C26.4476 197.086 26.4542 197.123 26.4612 197.159L26.6362 198.014C32.5033 225.311 64.2061 246.088 116.206 256.238L116.435 256.282L116.431 256.449C116.431 256.514 116.431 256.578 116.433 256.642L116.436 256.71L116.421 256.767C116.364 257.016 116.321 257.277 116.292 257.551L116.287 257.604L116.278 257.7L116.272 257.761C116.014 260.827 117.638 263.643 120.201 265.044L120.235 265.062L120.305 265.1C120.41 265.155 120.517 265.208 120.624 265.258L120.683 265.285L120.733 265.308C120.841 265.357 120.952 265.403 121.063 265.447L121.094 265.459L121.176 265.49C121.326 265.546 121.478 265.598 121.633 265.645L121.723 265.671L121.749 265.679L121.775 265.686L121.867 265.711C122.024 265.754 122.183 265.791 122.344 265.823L122.442 265.842L122.465 265.846L122.487 265.85L122.587 265.868L122.71 265.887C122.833 265.905 122.957 265.921 123.083 265.934L123.252 265.949L123.262 265.949L123.276 265.951L123.323 265.953L123.421 265.96L123.453 265.961L123.469 265.963L123.5 265.964L123.59 265.968L123.64 265.969L123.655 265.969L123.663 265.97L123.689 265.97L123.69 265.97L123.771 265.971L123.857 265.972L124.061 265.968C124.262 265.961 124.457 265.946 124.646 265.922L124.654 265.92L124.672 265.921C124.927 265.916 125.191 265.896 125.464 265.857L125.538 265.846L125.568 265.842L125.602 265.837L125.759 265.811C125.811 265.803 125.863 265.793 125.916 265.784L125.989 265.769L126.002 265.767L126.012 265.765L126.072 265.754C128.358 265.303 130.462 264.166 132.096 262.483L135.146 259.342L135.519 259.393C184.148 265.919 246.05 264.351 318.867 253.945L319.648 253.832L354.665 269.287L355.079 269.466C368.745 275.277 384.643 271.06 393.628 259.187L410.736 236.575L433.144 207C434.982 209.191 450.809 198.338 453 196.5L492.5 175.776L498.097 175.865C500.284 173.995 501.084 175.872 501.513 176.878C501.832 177.627 501.946 177.894 502.273 175.776H505.91L531.924 179.387L531.965 179.409C532.698 179.788 533.54 179.999 534.448 179.981L535.419 179.961L535.976 179.95L558.51 183.078L558.637 183.094C558.976 183.133 559.307 183.139 559.629 183.116L559.727 183.108L559.844 183.127C560.453 183.222 561.047 183.246 561.657 183.191L561.777 183.179C564.214 182.922 566.193 181.626 567.844 179.364L567.903 179.281L569.003 179.258C633.444 177.854 668.366 176.744 674.915 175.865L675.211 175.823C683.947 174.519 689.831 167.77 693.037 156.523L693.116 156.243L693.144 156.237C697.835 155.325 701.843 153.011 704.252 149.847C706.048 147.489 706.886 144.724 706.19 141.99C705.37 138.766 702.714 136.702 699.304 136.101L698.877 136.027C694.472 135.28 689.964 134.972 685.359 135.101L685.075 135.11L568.295 132.276L568.188 132.212C567.644 131.895 567.016 131.668 566.309 131.56L565.805 131.482C555.738 129.924 546.668 127.954 538.596 125.578L538.371 125.512L538.64 125.446C544.295 124.022 549.428 120.956 553.293 116.349L553.45 116.161C555.423 113.766 556.954 111.087 558.016 108.213L558.043 108.14L558.054 108.137C566.508 105.706 572.831 99.6897 574.228 91.7651C576.402 79.4352 565.896 67.8912 551.44 65.3421L551.12 65.2873C550.161 65.1276 549.201 65.0101 548.244 64.9345L548.221 64.9326L548.186 64.845C545.144 57.3053 538.401 51.649 530.086 50.1829L529.694 50.1171C516.78 48.0552 504.553 56.73 502.273 69.6573L500.71 78.5181L500.697 78.5417C499.578 80.4928 498.71 82.5634 498.097 84.7124L498.093 84.7259L497.994 84.6367C493.597 80.7014 488.633 76.9625 483.016 73.4583C471.408 66.216 457.58 60.3579 441.277 56.194C436.433 54.9569 430.134 53.9885 420.52 52.9022C419.526 52.7899 415.904 52.4131 411.117 51.9151C401.147 50.8779 386.121 49.3148 379.23 48.5175C359.606 46.2471 341.126 43.5953 321.589 40.0733C299.467 36.0852 264 21.8776 215.479 -2.52766C212.965 -3.79192 209.902 -2.81775 208.58 -0.333813C195.365 24.5059 192.068 53.0601 198.611 85.1266L198.743 85.7825C199.838 91.244 200.663 96.5909 201.218 101.823L201.248 102.109L201.233 102.107C195.08 101.518 190.561 100.56 187.766 99.3061C187.037 98.9791 186.475 98.6521 186.079 98.3442L186.025 98.3017C185.852 98.1627 185.739 98.0499 185.673 97.9671L185.669 97.9614L185.667 97.9744C185.678 97.8941 185.703 97.7885 185.747 97.6571C186.031 96.8127 186.335 95.9229 186.709 94.8437C186.92 94.2333 187.662 92.1012 187.712 91.9596L187.713 91.9553C189.76 86.0673 190.85 82.6583 191.805 78.8644C193.457 72.2986 194.058 66.5434 193.403 61.0516C192.621 54.4975 190.035 48.5824 185.423 43.3368C175.549 32.1058 156.502 24.1291 125.997 19.0132C72.0447 9.96497 24.6303 1.48371 -16.2439 -6.42997C-19.2324 -7.00858 -22.073 -4.89695 -22.38 -1.86845L-25.9733 33.5765C-26.2474 36.2801 -24.3848 38.7357 -21.7073 39.2006C14.7828 45.5367 47.7549 57.1348 77.2359 73.9905C82.367 76.9241 85.0368 79.9355 85.8762 83.0948C86.6469 85.9957 86.0075 89.5559 83.8068 94.03C81.6735 98.3671 78.206 103.322 73.0267 109.614ZM545.207 138.244L544.96 137.979L545.402 138.084C550.97 139.401 556.89 140.556 563.166 141.551L563.525 141.608L563.622 141.677C564.446 142.245 565.423 142.566 566.436 142.591L684.964 145.467C685.026 145.468 685.088 145.468 685.15 145.468C685.189 145.467 685.227 145.466 685.266 145.465L685.685 145.452C688.058 145.387 690.393 145.457 692.691 145.663L692.724 145.666L692.714 145.669C691.6 146.046 690.295 146.285 688.872 146.307C686.458 146.344 684.39 148.045 683.887 150.406C681.77 160.353 678.239 164.969 673.538 165.6C667.466 166.415 630.813 167.566 564.797 168.99C564.633 168.993 564.47 169.005 564.307 169.024L564.304 169.024C562.537 169.231 561 170.33 560.233 171.935L560.18 172.044C560.128 172.152 560.077 172.254 560.027 172.351L559.985 172.429L559.871 172.406C559.114 172.264 558.379 172.299 557.697 172.474L557.612 172.497L536.994 169.635L536.831 169.615C536.614 169.592 536.396 169.583 536.177 169.587L536.066 169.589L536.009 169.571C535.737 169.485 535.454 169.421 535.161 169.381L504.584 165.136L504.963 165.027C511.427 163.149 517.205 161.072 522.299 158.788L522.408 158.739L546.483 150.664C547.985 150.16 549.173 148.998 549.709 147.508L549.791 147.28C550.449 145.452 550.028 143.409 548.701 141.99C547.51 140.716 546.345 139.467 545.207 138.244ZM515.248 127.765L515.262 127.812C517.492 135.516 515.152 144.162 508.606 149.654L505.319 152.412L506.438 153.746L506.557 153.708C510.776 152.342 514.61 150.885 518.058 149.34L518.381 149.195C518.434 149.171 518.488 149.147 518.542 149.125C518.614 149.095 518.687 149.067 518.76 149.041C518.783 149.033 518.805 149.025 518.827 149.017C518.842 149.012 518.856 149.007 518.87 149.002L535.792 143.326L535.589 143.107C532.028 139.266 528.74 135.685 525.725 132.364L525.515 132.131L525.502 132.126C524.309 131.595 523.357 130.63 522.843 129.423L522.824 129.377L522.822 129.374L522.811 129.361L522.797 129.345C522.727 129.267 522.621 129.181 522.487 129.104C522.397 129.052 522.312 129.014 522.24 128.988L522.224 128.983L522.154 129.016C520.843 129.604 519.337 129.624 518.001 129.054L517.898 129.009C517.098 128.646 516.31 128.278 515.534 127.903L515.248 127.765ZM435.849 72.9109L435.844 72.7942L435.864 72.8023C440.631 74.6831 447.161 77.5221 455.432 81.3115L455.533 81.3568C455.805 81.4743 456.084 81.5672 456.366 81.6359L456.381 81.6391L456.381 81.6395C465.051 86.0561 473.706 92.3962 482.335 100.679L482.41 100.751C484.416 102.603 487.403 102.522 489.32 100.855L489.354 100.825L489.387 100.868C489.45 100.956 489.511 101.05 489.569 101.15L489.614 101.23C489.802 101.577 489.904 101.914 489.927 102.18L489.93 102.233L489.897 102.278C488.454 104.242 488.57 106.985 490.242 108.823L490.714 109.344C490.872 109.519 491.029 109.694 491.187 109.87L491.35 110.053L491.168 110.067C486.998 110.408 482.889 112 479.439 114.895L476.152 117.653L464.475 103.736L464.41 103.66C463.192 102.263 461.381 101.674 459.668 101.954L459.601 101.965L429.046 101.32L429.072 101.282C431.417 97.7797 433.146 93.4849 434.291 88.4377C435.519 83.0307 436.008 77.5459 435.849 72.9109ZM512.472 71.4561L510.743 81.2595C510.627 81.9175 510.384 82.5467 510.029 83.1126C508.003 86.3408 507.104 90.1996 507.405 94.2194L507.415 94.3415L507.583 94.5416C508.997 96.2352 510.297 97.9179 511.513 99.608L511.792 99.9981L511.942 100.208C514.28 103.464 518.224 108.275 523.736 114.583L523.921 114.794L524.062 114.842C532.028 117.482 540.293 115.564 545.206 109.873L545.36 109.692C547.097 107.622 548.296 105.208 548.922 102.569C549.402 100.548 551.044 99.0085 553.093 98.6604C559.124 97.6354 563.289 94.1619 564.029 89.9667C565.094 83.928 558.956 77.1836 549.641 75.5411C547.947 75.2424 546.258 75.1348 544.615 75.2135C542.066 75.3357 539.808 73.5825 539.294 71.0827C538.177 65.6422 533.851 61.3629 528.287 60.3819C520.862 59.0726 513.782 64.0305 512.472 71.4561ZM473.01 79.583L472.906 79.5107L472.915 79.5157C474.497 80.4007 476.037 81.3108 477.534 82.245L477.9 82.4743C481.67 84.8467 485.101 87.3263 488.227 89.8991L488.254 89.9213L488.136 89.9312C487.557 89.9835 486.984 90.0939 486.422 90.2651L486.372 90.2805L486.164 90.0914C481.811 86.1515 477.427 82.648 473.01 79.583Z" fill="white"/>
<path fill-rule="evenodd" clip-rule="evenodd" d="M386.005 89.6985C386.005 89.6985 172.211 121.978 181.111 95.4643C190.011 68.9502 206.402 37.1575 125.413 23.5751C44.4243 9.99268 -16.9555 -1.89111 -16.9555 -1.89111L-20.5448 33.5538C-20.5448 33.5538 35.0567 43.209 80.0788 68.9502C125.101 94.6914 23.5675 140.959 31.5437 194.039C39.5199 247.119 161.045 284.673 405.426 232.664L386.005 89.6985Z" fill="#FFE66A"/>
<path fill-rule="evenodd" clip-rule="evenodd" d="M431.771 199.199L390.123 254.243C381.811 265.228 367.038 269.058 354.436 263.493L276.535 229.095C270.919 226.615 264.429 227.148 259.292 230.51L236.269 245.58C235.649 245.986 234.898 246.14 234.168 246.011V246.011C232.371 245.694 231.306 243.82 231.953 242.113L250.65 192.792C252.26 188.544 256.728 186.105 261.173 187.049L363.279 208.726L401.55 147.787L431.771 199.199Z" fill="#BB9ABA"/>
<path d="M363.335 208.796L367.049 215.958" stroke="#312A46" stroke-width="1.78228" stroke-linecap="round"/>
<path fill-rule="evenodd" clip-rule="evenodd" d="M314.998 246.156L276.455 229.112C270.833 226.626 264.334 227.159 259.193 230.53L236.256 245.566C235.637 245.971 234.887 246.126 234.158 245.997C232.365 245.68 231.303 243.811 231.947 242.108L250.595 192.844C252.205 188.592 256.676 186.151 261.122 187.097L327.525 201.215L314.998 246.156Z" fill="#836682"/>
<path d="M251.026 208.748L238.115 239.881" stroke="#312A46" stroke-width="1.78228" stroke-linecap="round"/>
<path fill-rule="evenodd" clip-rule="evenodd" d="M565.634 136.81C569.002 139.391 571.057 149.359 567.975 162.44C564.894 175.521 562.412 177.601 560.644 177.761C558.875 177.922 551.433 173.767 551.433 173.767L550.101 144.724C550.101 144.724 562.266 134.23 565.634 136.81Z" fill="#312A46"/>
<path fill-rule="evenodd" clip-rule="evenodd" d="M547.468 136.692L684.545 140.018C684.545 140.018 691.372 139.784 697.86 140.928C704.347 142.072 699.131 151.047 688.407 151.212C688.407 151.212 684.623 168.992 673.682 170.46C662.74 171.928 533.798 174.531 533.798 174.531L547.468 136.692Z" fill="#ECAA7E"/>
<path fill-rule="evenodd" clip-rule="evenodd" d="M507.034 102.737C499.321 91.8973 481.042 71.5614 439.45 60.9386C421.665 56.3961 381.146 55.8974 320.125 44.8968C286.012 38.747 212.607 1.82576 212.607 1.82576C212.607 1.82576 193.671 37.4166 203.139 83.8188C212.607 130.221 196.989 166.523 196.989 166.523C196.989 166.523 451.329 184.732 519.972 153.639L544.516 145.407C544.516 145.407 514.747 113.576 507.034 102.737Z" fill="#66A948"/>
<path fill-rule="evenodd" clip-rule="evenodd" d="M384.454 124.709L131.966 198.063C128.824 198.976 126.551 201.706 126.223 204.961L121.013 256.672C120.805 258.732 122.423 260.521 124.494 260.521V260.521C125.439 260.521 126.345 260.139 127.003 259.46L148.588 237.235C152.705 232.996 157.993 230.081 163.775 228.864L433.363 172.086L384.454 124.709Z" fill="#BB9ABA"/>
<path d="M378.455 183.331L402.328 178.557" stroke="#312A46" stroke-width="1.78228" stroke-linecap="round"/>
<path fill-rule="evenodd" clip-rule="evenodd" d="M223.438 171.395L131.962 198.005C128.821 198.918 126.549 201.648 126.222 204.903L121.012 256.674C120.805 258.734 122.422 260.521 124.491 260.521V260.521C125.437 260.521 126.343 260.138 127.001 259.459L148.576 237.216C152.693 232.971 157.983 230.052 163.769 228.832L232.829 214.269L223.438 171.395Z" fill="#836682"/>
<path d="M128.587 231.695L125.987 256.232" stroke="#312A46" stroke-width="1.78228" stroke-linecap="round"/>
<path fill-rule="evenodd" clip-rule="evenodd" d="M525.337 132.792C525.337 132.792 547.503 137.702 562.199 137.702C562.199 137.702 554.536 145.038 552.76 158.419C551.799 165.66 558.677 177.676 558.677 177.676L482.914 167.16L525.337 132.792Z" fill="#7E2D7A"/>
<path fill-rule="evenodd" clip-rule="evenodd" d="M564.98 136.406C564.98 136.406 514.37 128.665 495.473 107.239C476.575 85.8121 457.174 76.2457 457.174 76.2457L375.131 130.174L428.784 200.973L564.98 136.406Z" fill="#7E2D7A"/>
<path fill-rule="evenodd" clip-rule="evenodd" d="M543.915 76.8234C545.721 66.5819 538.882 56.8156 528.641 55.0098V55.0098C518.399 53.204 508.633 60.0424 506.827 70.2838L504.907 81.1709L541.995 87.7104L543.915 76.8234Z" fill="#66A948"/>
<ellipse cx="5.58822" cy="4.65686" rx="5.58822" ry="4.65686" transform="matrix(-0.766044 -0.642788 -0.642788 0.766044 542.716 69.7041)" fill="white"/>
<ellipse cx="21.8527" cy="16.8862" rx="21.8527" ry="16.8862" transform="matrix(-0.984808 -0.173648 -0.173648 0.984808 571.516 73.9639)" fill="#66A948"/>
<ellipse cx="27.3337" cy="24.5396" rx="27.3337" ry="24.5396" transform="matrix(-0.766044 -0.642788 -0.642788 0.766044 564.555 93.9497)" fill="#ECAA7E"/>
<path fill-rule="evenodd" clip-rule="evenodd" d="M549.983 84.0112C549.983 84.0112 537.441 94.0564 525.686 90.8966C513.931 87.7368 507.626 76.7478 507.626 76.7478C507.626 76.7478 516.249 68.1309 528.781 69.5966C541.313 71.0624 549.983 84.0112 549.983 84.0112Z" fill="#312A46"/>
<path d="M531.921 106.76C531.921 106.76 524.516 106.461 525.642 99.9929" stroke="#312A46" stroke-width="1.78228" stroke-linecap="round"/>
<path fill-rule="evenodd" clip-rule="evenodd" d="M415.96 103.906C413.07 100.62 412.338 90.3287 416.878 78.0907C421.418 65.8527 425.548 64.6407 427.252 64.8698C428.956 65.0989 434.019 70.5341 434.019 70.5341L431.721 99.4975C431.721 99.4975 418.85 107.192 415.96 103.906Z" fill="#312A46"/>
<path fill-rule="evenodd" clip-rule="evenodd" d="M458.151 76.8397C458.151 76.8397 430.544 64.1463 427.389 64.8364C427.389 64.8364 429.882 67.8981 429.993 71.8857C430.352 84.7355 426.501 100.516 416.994 104.629L449.145 114.025L458.151 76.8397Z" fill="#7E2D7A"/>
<path d="M444.792 111.124L418.646 104.563" stroke="#312A46" stroke-width="1.78228" stroke-linecap="round"/>
<ellipse cx="489.721" cy="100.475" rx="6.03944" ry="4.3734" transform="rotate(60 489.721 100.475)" fill="#312A46"/>
<ellipse cx="522.769" cy="127.398" rx="4.86511" ry="3.52301" transform="rotate(30 522.769 127.398)" fill="#312A46"/>
<path fill-rule="evenodd" clip-rule="evenodd" d="M428.952 67.0839C408.756 61.8231 392.133 61.4215 378.665 65.5363C354.218 73.0056 357.152 98.801 381.991 141.824L393.245 158.861L417.444 138.679L401.321 106.444C398.979 101.762 403.399 96.5588 408.398 98.1135L420.897 102C420.897 102 426.424 97.1039 428.711 87.0263C430.001 81.3438 430.277 76.1325 430.134 72.5716C429.987 68.9224 429.153 67.1363 428.952 67.0839Z" fill="#ECAA7E"/>
<path fill-rule="evenodd" clip-rule="evenodd" d="M415.993 136.263C415.993 136.263 431.381 138.307 431.195 142.865C431.009 147.422 421.228 147.883 421.228 147.883C421.228 147.883 432.483 166.622 431.587 170.789C430.691 174.955 425.71 175.513 420.242 166.041C420.242 166.041 419.104 170.014 414.421 170.147C414.421 170.147 410.913 173.632 408.03 172.21C404.679 172.936 401.233 171.486 399.408 168.584L392.352 157.363L415.993 136.263Z" fill="#ECAA7E"/>
<path d="M415.263 169.661C415.263 169.661 410.739 165.581 408.85 160.018" stroke="#312A46" stroke-width="1.78228" stroke-linecap="round"/>
<path d="M408.099 171.833C408.099 171.833 403.576 167.753 401.687 162.19" stroke="#312A46" stroke-width="1.78228" stroke-linecap="round"/>
<path fill-rule="evenodd" clip-rule="evenodd" d="M486.991 205.945C486.674 203.683 484.739 202 482.454 202C480.172 202 478.224 203.652 477.852 205.904L477.594 207.471C477.585 207.524 477.578 207.578 477.572 207.633C476.959 213.71 475.133 218.809 472.461 222.834C470.455 225.855 468.078 228.047 466.337 228.878C464.658 229.679 462.631 230.237 460.252 230.539C457.822 230.848 456 232.915 456 235.365C456 237.667 457.533 239.688 459.75 240.308C462.759 241.149 466.221 243.359 470.076 246.978C474.063 250.721 476.565 257.692 477.398 267.948C477.624 270.723 479.941 272.86 482.725 272.86C485.513 272.86 487.819 270.689 487.988 267.906C488.267 263.284 489.093 257.989 490.469 252.026C491.802 246.247 495.292 241.799 501.085 238.564C503.201 237.382 504.512 235.149 504.512 232.726C504.512 230.274 503.06 228.055 500.814 227.072C497.974 225.829 495.247 223.66 492.642 220.53C489.774 217.085 487.874 212.238 486.991 205.945ZM482.477 210.168L482.477 210.165L482.516 210.348C483.709 215.837 485.749 220.344 488.662 223.843C491.755 227.559 495.111 230.229 498.738 231.816C499.1 231.974 499.333 232.331 499.333 232.726C499.333 233.272 499.038 233.776 498.56 234.043C491.523 237.972 487.095 243.618 485.423 250.862C483.986 257.089 483.117 262.663 482.819 267.593C482.816 267.643 482.774 267.682 482.725 267.682C482.638 267.682 482.567 267.615 482.56 267.529C481.632 256.114 478.715 247.986 473.62 243.203L473.42 243.016C469.416 239.291 465.637 236.807 462.04 235.597L461.866 235.539L461.975 235.522C464.437 235.127 466.635 234.473 468.566 233.552C471.207 232.292 474.277 229.46 476.775 225.698C479.603 221.439 481.6 216.222 482.477 210.168Z" fill="white"/>
<path fill-rule="evenodd" clip-rule="evenodd" d="M470.023 231.433C472.894 230.042 478.942 224.166 480.085 212.659L480.299 211.339C480.425 210.567 481.091 210 481.873 210C482.689 210 483.377 210.611 483.509 211.416C483.963 214.178 485.28 220.348 488.408 224.166C490.862 227.16 493.555 228.882 495.336 229.786C496.489 230.371 497.34 231.525 497.34 232.819C497.34 233.944 496.697 234.971 495.743 235.568C493.041 237.261 487.718 241.317 486.264 247.717C484.961 253.455 484.465 258.224 484.278 260.801C484.195 261.951 483.245 262.872 482.092 262.872C480.967 262.872 480.033 261.996 479.916 260.877C479.476 256.661 477.998 246.885 473.507 242.603C469.719 238.99 466.402 237.466 464.553 236.844C463.68 236.55 463 235.748 463 234.827C463 233.861 463.748 233.055 464.703 232.913C466.174 232.694 468.323 232.257 470.023 231.433Z" fill="#FFBD4F"/>
<path fill-rule="evenodd" clip-rule="evenodd" d="M679.517 23.311C679.169 20.8387 677.054 19 674.557 19C672.058 19 669.925 20.8086 669.517 23.2745L669.204 25.1689C669.195 25.2228 669.188 25.2769 669.182 25.3313C668.43 32.7829 666.182 39.0457 662.889 43.9964C660.403 47.7348 657.444 50.4596 655.233 51.512C653.138 52.5097 650.619 53.2016 647.674 53.5746C645.003 53.9128 643 56.185 643 58.8774C643 61.4219 644.695 63.6546 647.146 64.3384C650.897 65.3849 655.173 68.1083 659.913 72.5508C664.869 77.1954 667.951 85.7616 668.972 98.3071C669.223 101.387 671.796 103.759 674.886 103.759C677.977 103.759 680.534 101.352 680.722 98.2667C681.063 92.6359 682.07 86.1922 683.746 78.9424C685.401 71.785 689.737 66.268 696.904 62.2741C699.295 60.9413 700.778 58.418 700.778 55.68C700.778 52.9263 699.147 50.4341 696.623 49.3323C693.09 47.7896 689.712 45.1083 686.496 41.2527C682.945 36.9935 680.602 31.0277 679.517 23.311ZM674.326 25.9372L674.508 24.8365L674.515 24.8872C675.781 33.0966 678.435 39.6705 682.52 44.5692C686.223 49.0105 690.232 52.192 694.551 54.078C695.188 54.3561 695.6 54.9851 695.6 55.6801C695.6 56.5399 695.134 57.3324 694.383 57.751C685.972 62.4384 680.695 69.1526 678.701 77.7763C676.964 85.2904 675.914 92.0137 675.553 97.953C675.532 98.3058 675.239 98.5809 674.886 98.5809C674.493 98.5809 674.165 98.279 674.133 97.887C673.017 84.1807 669.519 74.4566 663.454 68.7725C658.156 63.807 653.203 60.6523 648.538 59.3507C648.325 59.2915 648.178 59.098 648.178 58.8775C648.178 58.7934 648.241 58.7224 648.324 58.7118C651.79 58.273 654.837 57.4359 657.459 56.1874C660.569 54.7069 664.222 51.3434 667.201 46.8641L667.337 46.6592C670.976 41.1103 673.446 34.2145 674.303 26.151L674.326 25.9372Z" fill="white"/>
<path fill-rule="evenodd" clip-rule="evenodd" d="M659.023 55.456C662.509 53.771 669.854 46.6526 671.241 32.7141L671.501 31.1184C671.654 30.1812 672.463 29.4929 673.413 29.4929C674.403 29.4929 675.238 30.2352 675.399 31.212C675.951 34.5599 677.551 42.0303 681.348 46.6526C684.33 50.2824 687.603 52.3685 689.765 53.4628C691.163 54.1703 692.193 55.5667 692.193 57.1335C692.193 58.4974 691.414 59.7405 690.257 60.463C686.977 62.512 680.51 67.4265 678.744 75.1813C677.163 82.1264 676.56 87.9006 676.333 91.0242C676.232 92.4203 675.078 93.5391 673.679 93.5391C672.312 93.5391 671.178 92.4757 671.035 91.1165C670.501 86.0071 668.704 74.1718 663.254 68.9862C658.651 64.6068 654.621 62.7619 652.378 62.0086C651.32 61.6535 650.495 60.6826 650.495 59.5667C650.495 58.3967 651.401 57.4207 652.559 57.2488C654.344 56.9836 656.957 56.4547 659.023 55.456Z" fill="#FFBD4F"/>
</svg>
